<svg width="244" height="24" viewBox="0 0 244 24" fill="none" xmlns="http://www.w3.org/2000/svg">
<path d="M3.184 8.428V10.78H7.856V12.908H3.184V15.372H7.856V17.5H1.04V6.3H7.856V8.428H3.184ZM19.1286 6.3V17.5H16.9846L12.8246 10.284V17.5H10.6806V6.3H12.8246L16.9846 13.516V6.3H19.1286ZM26.0999 13.228V11.1H30.3239V13.516C30.3239 15.996 28.7879 17.66 26.0999 17.66C23.4119 17.66 21.8759 15.996 21.8759 13.516V10.284C21.8759 7.804 23.4119 6.14 26.0999 6.14C28.6279 6.14 30.1319 7.612 30.3079 9.836H28.1479C27.9559 8.828 27.1239 8.268 26.0999 8.268C24.9319 8.268 24.0199 8.988 24.0199 10.284V13.516C24.0199 14.812 24.9319 15.532 26.0999 15.532C27.2679 15.532 28.1799 14.812 28.1799 13.516V13.228H26.0999Z" fill="#252020"/>
<path d="M38.7213 9.9949L43.0679 14.3416C43.5813 14.8549 44.4212 14.8549 44.9346 14.3416L49.2813 9.9949" stroke="#292D32" stroke-miterlimit="10" stroke-linecap="round" stroke-linejoin="round"/>
<path d="M136.62 20.8116C136.28 20.9316 135.72 20.9316 135.38 20.8116C132.48 19.8216 126 15.6916 126 8.69156C126 5.60156 128.49 3.10156 131.56 3.10156C133.38 3.10156 134.99 3.98156 136 5.34156C137.01 3.98156 138.63 3.10156 140.44 3.10156C143.51 3.10156 146 5.60156 146 8.69156C146 15.6916 139.52 19.8216 136.62 20.8116Z" stroke="#292D32" stroke-width="1.5" stroke-linecap="round" stroke-linejoin="round"/>
<path d="M180.396 6.5H187.596C190.996 6.5 191.336 8.09 191.566 10.03L192.466 17.53C192.756 19.99 191.996 22 188.496 22H179.506C175.996 22 175.236 19.99 175.536 17.53L176.436 10.03C176.656 8.09 176.996 6.5 180.396 6.5Z" stroke="#292D32" stroke-width="1.5" stroke-linecap="round" stroke-linejoin="round"/>
<path d="M180 8V4.5C180 3 181 2 182.5 2H185.5C187 2 188 3 188 4.5V8" stroke="#292D32" stroke-width="1.5" stroke-linecap="round" stroke-linejoin="round"/>
<path d="M192.41 17.0312H180" stroke="#292D32" stroke-width="1.5" stroke-linecap="round" stroke-linejoin="round"/>
<path d="M232.162 10.87C232.062 10.86 231.942 10.86 231.832 10.87C229.452 10.79 227.562 8.84 227.562 6.44C227.562 3.99 229.543 2 232.003 2C234.453 2 236.443 3.99 236.443 6.44C236.433 8.84 234.543 10.79 232.162 10.87Z" stroke="#292D32" stroke-width="1.5" stroke-linecap="round" stroke-linejoin="round"/>
<path d="M227.159 14.56C224.739 16.18 224.739 18.82 227.159 20.43C229.909 22.27 234.419 22.27 237.169 20.43C239.589 18.81 239.589 16.17 237.169 14.56C234.429 12.73 229.919 12.73 227.159 14.56Z" stroke="#292D32" stroke-width="1.5" stroke-linecap="round" stroke-linejoin="round"/>
</svg>
